<svg id="opciones-top" xmlns="http://www.w3.org/2000/svg" width="32" height="32" viewBox="0 0 32 32">
  <g id="Group_13" data-name="Group 13">
    <g id="perfil">
      <circle id="Oval" cx="16" cy="16" r="16" fill="#fff"/>
      <path id="Shape" d="M3.87,14.356H.554A.57.57,0,0,1,0,13.772v-.751A1.417,1.417,0,0,1,1.158,11.6V6.755a4.981,4.981,0,0,1,3.36-4.784c0-.009,0-.018,0-.027V1.538A1.466,1.466,0,0,1,5.893,0,1.466,1.466,0,0,1,7.271,1.538v.406c0,.009,0,.018,0,.027a4.981,4.981,0,0,1,3.36,4.784V11.6a1.416,1.416,0,0,1,1.157,1.421v.751a.57.57,0,0,1-.553.584H7.917a2.105,2.105,0,0,1-2.024,1.716A2.1,2.1,0,0,1,3.87,14.356Z" transform="translate(10.4 8)" fill="#1a1446"/>
    </g>
  </g>
</svg>
